<svg xmlns="http://www.w3.org/2000/svg" xmlns:xlink="http://www.w3.org/1999/xlink" width="400" height="400" viewBox="0 0 400 400">
<rect data-name="background" width="100%" height="100%" fill="#ffffff"/><g data-name="watermark" class="watermark-logodesign" stroke="#ffffff" transform="translate(40, 280) scale(1.5) rotate(-45)" style="opacity:0.040000010281801224;"><path fill="#000000" d="M19.52,53.48c-10.32,0-17.72-7.64-17.72-17.32c0-10,8.2-17.76,18.32-17.76c10.36,0,17.76,7.48,17.76,17.56c0,6.24-3.56,9.84-7.84,9.84c-2.96,0-4.44-1.56-5.04-3.72c-1.48,2-3.64,3.08-6.16,3.08c-4.84,0-8.52-3.8-8.52-8.96c0-5.2,3.64-9,8.56-9c2.36,0,4.52,0.96,6,3l0-2.52l3.44,0l0,12.48c0,1.68,0.6,2.96,2.24,2.96c2.12,0,4.2-2.52,4.2-7.12c0-8.28-5.76-14.68-14.6-14.68c-8.48,0-15.24,6.44-15.24,14.84c0,8.16,6.24,14.4,14.68,14.4c2.88,0,6.04-0.68,8.2-2.4l0.8,2.88c-2.36,1.68-5.68,2.44-9.08,2.44z M19.36,41.92c3.24,0,5.64-2.4,5.64-5.76c0-3.32-2.36-5.68-5.64-5.68c-3.2,0-5.48,2.36-5.48,5.68s2.32,5.76,5.48,5.76z M46.84,42.4l14.72,0l0,4l-19.08,0l0-28l4.36,0l0,24z M74.8,46.92c-6.16,0-10.68-4.56-10.68-10.6c0-6,4.52-10.56,10.68-10.56s10.68,4.56,10.68,10.56c0,6.04-4.52,10.6-10.68,10.6z M74.8,43.12c3.84,0,6.6-2.92,6.6-6.76c0-3.88-2.76-6.8-6.6-6.8s-6.6,2.92-6.6,6.8c0,3.84,2.76,6.76,6.6,6.76z M105.68,26.28l4.2,0l0,19.4c0,5.6-4.08,9.64-10.2,9.64c-4.84,0-7.92-2.24-9.6-5.24l3.68-1.36c1.2,2,3.12,3.08,6,3.08c3.84,0,5.88-2.64,5.92-6.08l0-2.96c-1.56,2.12-4,3.4-7.08,3.4c-5.84,0-10.04-4.44-10.04-10.2c0-5.96,4.2-10.2,10.04-10.2c3.08,0,5.52,1.28,7.08,3.36l0-2.84z M99.24,42.4c3.72,0,6.56-2.72,6.56-6.44s-2.84-6.4-6.56-6.4c-3.88,0-6.56,2.68-6.56,6.4s2.68,6.44,6.56,6.44z M124.92,46.92c-6.16,0-10.68-4.56-10.68-10.6c0-6,4.52-10.56,10.68-10.56s10.68,4.56,10.68,10.56c0,6.04-4.52,10.6-10.68,10.6z M124.92,43.12c3.84,0,6.6-2.92,6.6-6.76c0-3.88-2.76-6.8-6.6-6.8s-6.6,2.92-6.6,6.8c0,3.84,2.76,6.76,6.6,6.76z M141.88,46.68c-1.56,0-2.76-1.2-2.76-2.72c0-1.48,1.2-2.68,2.76-2.68s2.76,1.2,2.76,2.68c0,1.52-1.2,2.72-2.76,2.72z M158.2,46.92c-5.68,0-10-4.52-10-10.6c0-6.04,4.32-10.56,10-10.56c3.24,0,5.72,1.4,7.24,3.56l0-3.04l4.16,0l0,20.12l-4.16,0l0-3.04c-1.52,2.16-4,3.56-7.24,3.56z M158.88,43.16c3.68,0,6.64-2.88,6.64-6.84c0-3.92-2.96-6.8-6.64-6.8c-3.84,0-6.56,2.84-6.56,6.8s2.72,6.84,6.56,6.84z M186.6,25.76c5.68,0,10.04,4.52,10.04,10.56c0,6.08-4.36,10.6-10.04,10.6c-3.2,0-5.68-1.4-7.2-3.56l0,11.44l-4.2,0l0-28.52l4.2,0l0,3.04c1.52-2.16,4-3.56,7.2-3.56z M185.92,43.16c3.84,0,6.56-2.88,6.56-6.84s-2.72-6.8-6.56-6.8c-3.68,0-6.64,2.88-6.64,6.8c0,3.96,2.96,6.84,6.64,6.84z M212.36,25.76c5.68,0,10.04,4.52,10.04,10.56c0,6.08-4.36,10.6-10.04,10.6c-3.2,0-5.68-1.4-7.2-3.56l0,11.44l-4.2,0l0-28.52l4.2,0l0,3.04c1.52-2.16,4-3.56,7.2-3.56z M211.68,43.16c3.84,0,6.56-2.88,6.56-6.84s-2.72-6.8-6.56-6.8c-3.68,0-6.64,2.88-6.64,6.8c0,3.96,2.96,6.84,6.64,6.84z"/></g><g data-name="icon" fill="#233d79" data="id:8136805" transform="translate(134.4881575696618,103.64121276588702) scale(1.3103296209676236)">
    
 <path d="m1.7617 54.391c0.44922 2.0312 1.293 4.0859 2.4688 6.0234-1.3984 4.3086-2.7031 8.6328-3.8828 12.875-0.87109 3.0938 0.03125 6.1836 2.3633 8.0703 1.3164 1.0625 2.9141 1.6055 4.5625 1.6055 1.2734 0 2.5781-0.32031 3.8047-0.96875 3.3594-1.7539 6.7305-3.5938 10.09-5.5078 2.8281 6.1094 8.9258 11.156 15.477 12.438 4.2188 0.83984 15.156 1.793 22.457 1.7148 3.7891 0.039063 8.9219-0.20312 13.949-0.64844 5.3359 3.2188 10.766 6.2695 16.133 9.0703 1.2031 0.63281 2.4766 0.94531 3.7188 0.94531 1.6094 0 3.1641-0.52734 4.4453-1.5625 2.2695-1.8359 3.1523-4.8438 2.3086-7.8398-1.1133-4.0078-2.3438-8.0898-3.6602-12.152 1.1016-1.8359 1.8906-3.7734 2.3203-5.6953l0.007813-0.046874c1.1094-5.3594 1.6562-10.891 1.668-16.93-0.011719-6.0352-0.55469-11.57-1.668-16.918-0.003907-0.015625-0.007813-0.03125-0.007813-0.046875-0.78125-3.5312-2.6953-6.9375-5.5273-9.8516-2.2773-2.3438-5.0312-4.1875-7.8906-5.3281-0.23828-1.6484-0.52344-3.2734-0.85547-4.8828-0.003907-0.015625-0.007813-0.03125-0.007813-0.046875-1.7812-8.0312-9.3047-15.289-17.508-16.887-4.4375-0.89453-15.941-1.8984-23.629-1.8125-7.6875-0.085938-19.188 0.92188-23.629 1.8047-8.1992 1.5938-15.727 8.8516-17.508 16.883-0.003907 0.015626-0.007813 0.03125-0.007813 0.046876-1.168 5.625-1.7422 11.445-1.7539 17.809 0.011719 6.3398 0.58594 12.16 1.7539 17.789 0.003906 0.015625 0.007813 0.03125 0.007813 0.046875zm82.285-0.046875c1.1719-5.6289 1.7422-11.449 1.7539-17.805 0-1.3516-0.03125-2.6797-0.085937-3.9844 2.6484 2.0312 4.7031 4.9219 5.3555 7.8359 1.0039 4.8438 1.5 9.8789 1.5078 15.383-0.007813 5.5859-0.48828 10.477-1.5078 15.398-0.33594 1.5078-1.0781 3.0781-2.1484 4.5391-0.70703 0.96875-0.90234 2.2188-0.52344 3.3555 1.4688 4.4414 2.8359 8.918 4.0625 13.324-5.5312-2.8906-11.113-6.0469-16.594-9.3828-0.6875-0.41406-1.4844-0.60156-2.2852-0.52344-5.1016 0.48828-10.629 0.76953-14.43 0.72656h-0.082032c-7.082 0.078124-17.602-0.90234-20.969-1.5742-0.007812 0-0.015624 0-0.023437-0.003907-4.4219-0.85547-8.8008-4.6875-10.453-8.9258 0.17188-0.10156 0.34766-0.20703 0.52344-0.3125 5.3125 0.47656 10.742 0.73047 14.75 0.6875 7.6797 0.082031 19.188-0.92188 23.629-1.8047 8.2031-1.5938 15.727-8.8516 17.508-16.887 0.003906-0.015625 0.007813-0.03125 0.007813-0.046875zm-75.031-34.062c1.1484-5.1406 6.3828-10.156 11.68-11.184 0.007813 0 0.015626 0 0.023438-0.003906 3.5547-0.71094 14.664-1.7461 22.145-1.6641h0.082031c7.4688-0.082032 18.586 0.95312 22.141 1.6641 0.007812 0 0.015624 0 0.023437 0.003906 5.2969 1.0273 10.527 6.0391 11.68 11.188 1.0781 5.1953 1.5859 10.367 1.5938 16.258-0.007812 5.8281-0.53125 11.148-1.5938 16.27-1.1484 5.1406-6.3828 10.156-11.68 11.188-0.007813 0-0.015625 0-0.023437 0.003906-3.5547 0.71094-14.664 1.7422-22.141 1.6641h-0.082031c-4.0078 0.046875-9.8438-0.25-15.23-0.76562-0.79687-0.078125-1.6016 0.10938-2.2852 0.52344-5.8398 3.5547-11.793 6.9141-17.703 10-0.070312 0.039063-0.13281 0.0625-0.18359 0.082031 0.007812-0.054687 0.023437-0.125 0.046874-0.21094 1.3047-4.7031 2.7656-9.5 4.3438-14.262 0.375-1.1367 0.17969-2.3867-0.52344-3.3555-1.1406-1.5664-1.9375-3.25-2.3008-4.8633-1.0781-5.1953-1.5859-10.367-1.5938-16.258 0.007812-5.8281 0.53125-11.152 1.5938-16.273z"/>
 <path d="m21.488 42.277c0.92969 0.15625 1.9062 0.23047 2.9922 0.23047 1.0859 0 2.0625-0.078124 2.9883-0.23047 1.3281-0.23438 2.5078-1.4141 2.7422-2.7344 0.15625-0.92969 0.23047-1.9062 0.23047-2.9922 0-1.0859-0.078125-2.0625-0.23047-2.9883-0.23438-1.3281-1.4141-2.5078-2.7344-2.7422-0.92969-0.15625-1.9062-0.23047-2.9922-0.23047s-2.0625 0.078125-2.9883 0.23047c-1.3281 0.23438-2.5078 1.4141-2.7422 2.7344-0.15625 0.92969-0.23047 1.9062-0.23047 2.9922 0 1.0898 0.078124 2.0664 0.23047 2.9883 0.23438 1.3281 1.4141 2.5078 2.7344 2.7422z"/>
 <path d="m39.695 42.277c0.92969 0.15625 1.9062 0.23047 2.9922 0.23047s2.0625-0.078124 2.9883-0.23047c1.3281-0.23438 2.5078-1.4141 2.7422-2.7344 0.15625-0.92969 0.23047-1.9062 0.23047-2.9922 0-1.0859-0.078126-2.0625-0.23047-2.9883-0.23438-1.3281-1.4141-2.5078-2.7344-2.7422-0.92969-0.15625-1.9062-0.23047-2.9922-0.23047-1.0859 0-2.0625 0.078125-2.9883 0.23047-1.3281 0.23438-2.5078 1.4141-2.7422 2.7344-0.15625 0.92969-0.23047 1.9062-0.23047 2.9922 0 1.0898 0.078125 2.0664 0.23047 2.9883 0.23437 1.3281 1.4141 2.5078 2.7344 2.7422z"/>
 <path d="m57.898 42.277c0.92969 0.15625 1.9062 0.23047 2.9922 0.23047s2.0625-0.078124 2.9883-0.23047c1.3281-0.23438 2.5078-1.4141 2.7422-2.7344 0.15625-0.92969 0.23047-1.9062 0.23047-2.9922 0-1.0859-0.078124-2.0625-0.23047-2.9883-0.23438-1.3281-1.4141-2.5078-2.7344-2.7422-0.92969-0.15625-1.9062-0.23047-2.9922-0.23047-1.0859 0-2.0625 0.078125-2.9883 0.23047-1.3281 0.23438-2.5078 1.4141-2.7422 2.7344-0.15625 0.92969-0.23047 1.9062-0.23047 2.9922 0 1.0898 0.078125 2.0664 0.23047 2.9883 0.23438 1.3281 1.4141 2.5078 2.7344 2.7422z"/>

    </g><g data-name="business_name" fill="#233d79" data="id:363" transform="translate(63.98749999999998,240.3477304372523) scale(1.4001698667345674)"><path d="M0,20.48l0-10.24l21.76,0l0,10.24l-7.48,0l0,19.52l-6.8,0l0-19.52l-7.48,0l0,0z M46,20.12l-3.2,0l4.04,19.88l-8.12,0l-0.76-3.68l-7.08,0l-0.64,3.68l-6.48,0l3.44-19.88l-1.96,0l0-9.88l20.76,0l0,9.88z M32.32,27.8l3.92,0l-1.56-7.68l-1,0z M55.68,10.24l0,20.8l13.12,0l0,8.96l-19.96,0l0-29.76l6.84,0l0,0z M87.32,23.6q1.8,0.68,2.56,1.9t0.76,3.14l0.84,11.36l-7.96,0l-0.28-8.12q0-2.48-0.9-3.58t-2.54-1.1q-0.92,0-1.44,0.32l0,12.48l-7.56,0l0-29.76l7.56,0l0,12.24q0.52,0.32,1.24,0.32q1.4,0,2.2-0.98t1.12-3.38l0.84-8.2l7.4,0l-0.92,9.72q-0.12,1.04-0.42,1.62t-0.72,0.92t-0.9,0.56t-0.88,0.54z  M113.28,10.24q3.32,0,5.4,0.56t3.24,1.68t1.58,2.82t0.42,3.98l0,6.72l-5.64,0l0-3.48q0-0.96-0.18-1.66t-0.66-1.18t-1.34-0.72t-2.26-0.24q-2.48,0-3.46,0.98t-0.98,2.82l0,6q0,1.92,0.96,2.78t3.48,0.86q2.48,0,3.44-0.8t1-2.64l5.64,0l0,2.6q0,2.28-0.54,3.92t-1.78,2.7t-3.28,1.56t-5.04,0.5q-3.04,0-5.08-0.52t-3.26-1.58t-1.74-2.7t-0.52-3.88l0-12.04q0-2.24,0.54-3.92t1.76-2.82t3.26-1.72t5.04-0.58z M139.48,25l0-14.76l5.96,0l0,29.76l-5.96,0l0-6.48l-5.8,0l0,6.48l-7.76,0l0-29.76l7.76,0l0,14.76l5.8,0l0,0z M169.68,20.12l-3.2,0l4.04,19.88l-8.12,0l-0.76-3.68l-7.08,0l-0.64,3.68l-6.48,0l3.44-19.88l-1.96,0l0-9.88l20.76,0l0,9.88z M156,27.8l3.92,0l-1.56-7.68l-1,0z M172.52,20.48l0-10.24l21.76,0l0,10.24l-7.48,0l0,19.52l-6.8,0l0-19.52l-7.48,0l0,0z"/></g></svg>